<?xml version="1.0" encoding="UTF-8" standalone="no"?>
<svg width="27px" height="27px" viewBox="0 0 27 27" version="1.1" xmlns="http://www.w3.org/2000/svg" xmlns:xlink="http://www.w3.org/1999/xlink">
    <!-- Generator: Sketch 3.8.3 (29802) - http://www.bohemiancoding.com/sketch -->
    <title>Page 1</title>
    <desc>Created with Sketch.</desc>
    <defs>
        <polygon id="path-1" points="0 1.107 0 20.232 19.12275 20.232 19.12275 1.107 3.65918233e-19 1.107"></polygon>
        <path d="M16.87275,9 L16.87275,13.482 L8.623125,13.482 L5.62275,15.732 L5.62275,13.482 L2.24775,13.482 L2.24775,3.357 L11.24775,3.357 L11.24775,1.125 L11.268,1.107 L2.24775,1.107 C1.006875,1.107 -0.00225,2.115 -0.00225,3.357 L-0.00225,13.482 C-0.00225,14.724 1.006875,15.732 2.24775,15.732 L3.37275,15.732 L3.37275,20.232 L9.372375,15.732 L16.87275,15.732 C18.11475,15.732 19.12275,14.724 19.12275,13.482 L19.12275,9 L16.87275,9 Z" id="path-3"></path>
        <mask id="mask-4" maskContentUnits="userSpaceOnUse" maskUnits="objectBoundingBox" x="0" y="0" width="19.125" height="19.125" fill="white">
            <use xlink:href="#path-3"></use>
        </mask>
        <polygon id="path-5" points="15.7491568 0 1.12318213 0 1.12318213 14.6260588 15.7491568 14.6260588 15.7491568 0"></polygon>
        <path d="M11.24775,6.2841375 L9.4635,4.4998875 L11.24775,2.7156375 L13.032,4.4998875 L11.24775,6.2841375 Z M6.17175,11.3578875 L3.7935,11.9541375 L4.38975,9.5758875 L7.87275,6.0906375 L9.655875,7.8748875 L6.17175,11.3578875 Z M12.043125,0.3295125 C11.60325,-0.1103625 10.89225,-0.1103625 10.452375,0.3295125 L2.577375,8.2045125 C2.4345,8.3485125 2.331,8.5296375 2.2815,8.7276375 L1.1565,13.2276375 C1.060875,13.6123875 1.1745,14.0162625 1.4535,14.2963875 C1.7325,14.5742625 2.1375,14.6890125 2.521125,14.5922625 L7.021125,13.4672625 C7.219125,13.4177625 7.399125,13.3131375 7.54425,13.1713875 L15.41925,5.2963875 C15.858,4.8553875 15.86025,4.1443875 15.41925,3.7045125 L12.043125,0.3295125 Z" id="path-7"></path>
        <mask id="mask-8" maskContentUnits="userSpaceOnUse" maskUnits="objectBoundingBox" x="0" y="0" width="14.6259747" height="14.6264525" fill="white">
            <use xlink:href="#path-7"></use>
        </mask>
    </defs>
    <g id="Page-1" stroke="none" stroke-width="1" fill="none" fill-rule="evenodd">
        <g id="LDWP-v3-Copy-29" transform="translate(-983.000000, -132.000000)">
            <g id="Page-1" transform="translate(983.000000, 132.000000)">
                <g id="Group-3" transform="translate(0.000000, 6.750000)">
                    <mask id="mask-2" fill="white">
                        <use xlink:href="#path-1"></use>
                    </mask>
                    <g id="Clip-2"></g>
                    <g id="Fill-1" mask="url(#mask-2)" stroke-width="0.600000024" stroke="#FFFFFF" fill="#358ED7">
                        <use mask="url(#mask-4)" xlink:href="#path-3"></use>
                    </g>
                </g>
                <g id="Group-6" transform="translate(11.250000, 0.000000)">
                    <mask id="mask-6" fill="white">
                        <use xlink:href="#path-5"></use>
                    </mask>
                    <g id="Clip-5"></g>
                    <g id="Fill-4" mask="url(#mask-6)" stroke-width="0.600000024" stroke="#FFFFFF" fill="#358ED7">
                        <use mask="url(#mask-8)" xlink:href="#path-7"></use>
                    </g>
                </g>
            </g>
        </g>
    </g>
</svg>